<mxfile host="app.diagrams.net" modified="2022-03-01T10:15:20.328Z" agent="5.0 (Windows NT 10.0; Win64; x64) AppleWebKit/537.36 (KHTML, like Gecko) Chrome/98.0.4758.102 Safari/537.36" etag="tlbnZ_F_zTcvv0G35u2v" version="16.6.4" type="github">
  <diagram id="yhKweA5VbCMmsTNcMobQ" name="Page-1">
    <mxGraphModel dx="1822" dy="1162" grid="0" gridSize="10" guides="1" tooltips="1" connect="1" arrows="1" fold="1" page="0" pageScale="1" pageWidth="850" pageHeight="1100" math="0" shadow="0">
      <root>
        <mxCell id="0" />
        <mxCell id="1" parent="0" />
        <mxCell id="7ADdNedlcQ4gWojdDxL4-1" value="AWS Cloud" style="points=[[0,0],[0.25,0],[0.5,0],[0.75,0],[1,0],[1,0.25],[1,0.5],[1,0.75],[1,1],[0.75,1],[0.5,1],[0.25,1],[0,1],[0,0.75],[0,0.5],[0,0.25]];outlineConnect=0;gradientColor=none;html=1;whiteSpace=wrap;fontSize=12;fontStyle=0;container=1;pointerEvents=0;collapsible=0;recursiveResize=0;shape=mxgraph.aws4.group;grIcon=mxgraph.aws4.group_aws_cloud_alt;strokeColor=#232F3E;fillColor=none;verticalAlign=top;align=left;spacingLeft=30;fontColor=#232F3E;dashed=0;" parent="1" vertex="1">
          <mxGeometry x="10" y="80" width="920" height="620" as="geometry" />
        </mxCell>
        <mxCell id="7ADdNedlcQ4gWojdDxL4-2" value="Region" style="points=[[0,0],[0.25,0],[0.5,0],[0.75,0],[1,0],[1,0.25],[1,0.5],[1,0.75],[1,1],[0.75,1],[0.5,1],[0.25,1],[0,1],[0,0.75],[0,0.5],[0,0.25]];outlineConnect=0;gradientColor=none;html=1;whiteSpace=wrap;fontSize=12;fontStyle=0;container=1;pointerEvents=0;collapsible=0;recursiveResize=0;shape=mxgraph.aws4.group;grIcon=mxgraph.aws4.group_region;strokeColor=#147EBA;fillColor=none;verticalAlign=top;align=left;spacingLeft=30;fontColor=#147EBA;dashed=1;" parent="1" vertex="1">
          <mxGeometry x="40" y="110" width="850" height="560" as="geometry" />
        </mxCell>
        <mxCell id="7ADdNedlcQ4gWojdDxL4-30" value="Amazon S3" style="sketch=0;outlineConnect=0;fontColor=#232F3E;gradientColor=none;strokeColor=#ffffff;fillColor=#232F3E;dashed=0;verticalLabelPosition=middle;verticalAlign=bottom;align=center;html=1;whiteSpace=wrap;fontSize=10;fontStyle=1;spacing=3;shape=mxgraph.aws4.productIcon;prIcon=mxgraph.aws4.s3;" parent="7ADdNedlcQ4gWojdDxL4-2" vertex="1">
          <mxGeometry x="370" width="50" height="80" as="geometry" />
        </mxCell>
        <mxCell id="7ADdNedlcQ4gWojdDxL4-39" value="Amazon Athena" style="sketch=0;outlineConnect=0;fontColor=#232F3E;gradientColor=none;strokeColor=#ffffff;fillColor=#232F3E;dashed=0;verticalLabelPosition=middle;verticalAlign=bottom;align=center;html=1;whiteSpace=wrap;fontSize=10;fontStyle=1;spacing=3;shape=mxgraph.aws4.productIcon;prIcon=mxgraph.aws4.athena;" parent="7ADdNedlcQ4gWojdDxL4-2" vertex="1">
          <mxGeometry x="620" width="50" height="80" as="geometry" />
        </mxCell>
        <mxCell id="7ADdNedlcQ4gWojdDxL4-57" value="" style="endArrow=classic;html=1;rounded=0;strokeColor=#0000FF;" parent="7ADdNedlcQ4gWojdDxL4-2" source="7ADdNedlcQ4gWojdDxL4-39" target="7ADdNedlcQ4gWojdDxL4-30" edge="1">
          <mxGeometry width="50" height="50" relative="1" as="geometry">
            <mxPoint x="360" y="310" as="sourcePoint" />
            <mxPoint x="410" y="260" as="targetPoint" />
          </mxGeometry>
        </mxCell>
        <mxCell id="7ADdNedlcQ4gWojdDxL4-58" value="" style="endArrow=classic;html=1;rounded=0;exitX=0.933;exitY=0.39;exitDx=0;exitDy=0;exitPerimeter=0;strokeColor=#FF0000;" parent="7ADdNedlcQ4gWojdDxL4-2" target="7ADdNedlcQ4gWojdDxL4-30" edge="1">
          <mxGeometry width="50" height="50" relative="1" as="geometry">
            <mxPoint x="241.9849999999999" y="39" as="sourcePoint" />
            <mxPoint x="410" y="260" as="targetPoint" />
          </mxGeometry>
        </mxCell>
        <mxCell id="jwfu2s2IBSjofHwO_xUc-1" value="" style="sketch=0;points=[[0,0,0],[0.25,0,0],[0.5,0,0],[0.75,0,0],[1,0,0],[0,1,0],[0.25,1,0],[0.5,1,0],[0.75,1,0],[1,1,0],[0,0.25,0],[0,0.5,0],[0,0.75,0],[1,0.25,0],[1,0.5,0],[1,0.75,0]];outlineConnect=0;fontColor=#232F3E;gradientColor=#945DF2;gradientDirection=north;fillColor=#5A30B5;strokeColor=#ffffff;dashed=0;verticalLabelPosition=bottom;verticalAlign=top;align=center;html=1;fontSize=12;fontStyle=0;aspect=fixed;shape=mxgraph.aws4.resourceIcon;resIcon=mxgraph.aws4.kinesis_data_firehose;" vertex="1" parent="7ADdNedlcQ4gWojdDxL4-2">
          <mxGeometry x="201" y="1" width="57" height="57" as="geometry" />
        </mxCell>
        <mxCell id="jwfu2s2IBSjofHwO_xUc-2" value="Kinesis Firehose" style="text;html=1;strokeColor=none;fillColor=none;align=center;verticalAlign=middle;whiteSpace=wrap;rounded=0;" vertex="1" parent="7ADdNedlcQ4gWojdDxL4-2">
          <mxGeometry x="186" y="58" width="96" height="30" as="geometry" />
        </mxCell>
        <mxCell id="7ADdNedlcQ4gWojdDxL4-3" value="VPC" style="points=[[0,0],[0.25,0],[0.5,0],[0.75,0],[1,0],[1,0.25],[1,0.5],[1,0.75],[1,1],[0.75,1],[0.5,1],[0.25,1],[0,1],[0,0.75],[0,0.5],[0,0.25]];outlineConnect=0;gradientColor=none;html=1;whiteSpace=wrap;fontSize=12;fontStyle=0;container=1;pointerEvents=0;collapsible=0;recursiveResize=0;shape=mxgraph.aws4.group;grIcon=mxgraph.aws4.group_vpc;strokeColor=#248814;fillColor=none;verticalAlign=top;align=left;spacingLeft=30;fontColor=#AAB7B8;dashed=0;" parent="1" vertex="1">
          <mxGeometry x="70" y="210" width="800" height="440" as="geometry" />
        </mxCell>
        <mxCell id="7ADdNedlcQ4gWojdDxL4-6" value="Availability zone" style="sketch=0;outlineConnect=0;gradientColor=none;html=1;whiteSpace=wrap;fontSize=12;fontStyle=0;shape=mxgraph.aws4.group;grIcon=mxgraph.aws4.group_availability_zone;strokeColor=#545B64;fillColor=none;verticalAlign=top;align=left;spacingLeft=30;fontColor=#545B64;dashed=1;" parent="7ADdNedlcQ4gWojdDxL4-3" vertex="1">
          <mxGeometry x="20" y="30" width="330" height="390" as="geometry" />
        </mxCell>
        <mxCell id="7ADdNedlcQ4gWojdDxL4-7" value="Availability zone" style="sketch=0;outlineConnect=0;gradientColor=none;html=1;whiteSpace=wrap;fontSize=12;fontStyle=0;shape=mxgraph.aws4.group;grIcon=mxgraph.aws4.group_availability_zone;strokeColor=#545B64;fillColor=none;verticalAlign=top;align=left;spacingLeft=30;fontColor=#545B64;dashed=1;" parent="7ADdNedlcQ4gWojdDxL4-3" vertex="1">
          <mxGeometry x="433" y="30" width="340" height="390" as="geometry" />
        </mxCell>
        <mxCell id="7ADdNedlcQ4gWojdDxL4-8" value="Internet&#xa;gateway" style="sketch=0;outlineConnect=0;fontColor=#232F3E;gradientColor=none;strokeColor=#232F3E;fillColor=#ffffff;dashed=0;verticalLabelPosition=bottom;verticalAlign=top;align=center;html=1;fontSize=12;fontStyle=0;aspect=fixed;shape=mxgraph.aws4.resourceIcon;resIcon=mxgraph.aws4.internet_gateway;" parent="7ADdNedlcQ4gWojdDxL4-3" vertex="1">
          <mxGeometry x="280" y="-10" width="40" height="40" as="geometry" />
        </mxCell>
        <mxCell id="7ADdNedlcQ4gWojdDxL4-9" value="Public subnet" style="points=[[0,0],[0.25,0],[0.5,0],[0.75,0],[1,0],[1,0.25],[1,0.5],[1,0.75],[1,1],[0.75,1],[0.5,1],[0.25,1],[0,1],[0,0.75],[0,0.5],[0,0.25]];outlineConnect=0;gradientColor=none;html=1;whiteSpace=wrap;fontSize=12;fontStyle=0;container=1;pointerEvents=0;collapsible=0;recursiveResize=0;shape=mxgraph.aws4.group;grIcon=mxgraph.aws4.group_security_group;grStroke=0;strokeColor=#248814;fillColor=#E9F3E6;verticalAlign=top;align=left;spacingLeft=30;fontColor=#248814;dashed=0;" parent="7ADdNedlcQ4gWojdDxL4-3" vertex="1">
          <mxGeometry x="40" y="70" width="290" height="100" as="geometry" />
        </mxCell>
        <mxCell id="7ADdNedlcQ4gWojdDxL4-36" value="NAT gateway" style="sketch=0;outlineConnect=0;fontColor=#232F3E;gradientColor=none;strokeColor=#232F3E;fillColor=#ffffff;dashed=0;verticalLabelPosition=bottom;verticalAlign=top;align=center;html=1;fontSize=12;fontStyle=0;aspect=fixed;shape=mxgraph.aws4.resourceIcon;resIcon=mxgraph.aws4.nat_gateway;opacity=90;" parent="7ADdNedlcQ4gWojdDxL4-9" vertex="1">
          <mxGeometry x="169" width="40" height="40" as="geometry" />
        </mxCell>
        <mxCell id="7ADdNedlcQ4gWojdDxL4-10" value="Private subnet" style="points=[[0,0],[0.25,0],[0.5,0],[0.75,0],[1,0],[1,0.25],[1,0.5],[1,0.75],[1,1],[0.75,1],[0.5,1],[0.25,1],[0,1],[0,0.75],[0,0.5],[0,0.25]];outlineConnect=0;gradientColor=none;html=1;whiteSpace=wrap;fontSize=12;fontStyle=0;container=1;pointerEvents=0;collapsible=0;recursiveResize=0;shape=mxgraph.aws4.group;grIcon=mxgraph.aws4.group_security_group;grStroke=0;strokeColor=#147EBA;fillColor=#E6F2F8;verticalAlign=top;align=left;spacingLeft=30;fontColor=#147EBA;dashed=0;" parent="7ADdNedlcQ4gWojdDxL4-3" vertex="1">
          <mxGeometry x="40" y="190" width="290" height="210" as="geometry" />
        </mxCell>
        <mxCell id="7ADdNedlcQ4gWojdDxL4-14" value="" style="outlineConnect=0;dashed=0;verticalLabelPosition=bottom;verticalAlign=top;align=center;html=1;shape=mxgraph.aws3.ec2;fillColor=#F58534;gradientColor=none;aspect=fixed;" parent="7ADdNedlcQ4gWojdDxL4-10" vertex="1">
          <mxGeometry x="60" y="125.63" width="36.5" height="44.37" as="geometry" />
        </mxCell>
        <mxCell id="7ADdNedlcQ4gWojdDxL4-13" value="" style="outlineConnect=0;dashed=0;verticalLabelPosition=bottom;verticalAlign=top;align=center;html=1;shape=mxgraph.aws3.ec2;fillColor=#F58534;gradientColor=none;aspect=fixed;" parent="7ADdNedlcQ4gWojdDxL4-10" vertex="1">
          <mxGeometry x="60" y="20" width="36.5" height="44.37" as="geometry" />
        </mxCell>
        <mxCell id="7ADdNedlcQ4gWojdDxL4-26" value="MySQL" style="text;html=1;strokeColor=none;fillColor=none;align=center;verticalAlign=middle;whiteSpace=wrap;rounded=0;opacity=70;" parent="7ADdNedlcQ4gWojdDxL4-10" vertex="1">
          <mxGeometry x="48.25" y="170" width="60" height="30" as="geometry" />
        </mxCell>
        <mxCell id="7ADdNedlcQ4gWojdDxL4-43" value="" style="sketch=0;points=[[0,0,0],[0.25,0,0],[0.5,0,0],[0.75,0,0],[1,0,0],[0,1,0],[0.25,1,0],[0.5,1,0],[0.75,1,0],[1,1,0],[0,0.25,0],[0,0.5,0],[0,0.75,0],[1,0.25,0],[1,0.5,0],[1,0.75,0]];outlineConnect=0;fontColor=#232F3E;gradientColor=#945DF2;gradientDirection=north;fillColor=#5A30B5;strokeColor=#ffffff;dashed=0;verticalLabelPosition=bottom;verticalAlign=top;align=center;html=1;fontSize=12;fontStyle=0;aspect=fixed;shape=mxgraph.aws4.resourceIcon;resIcon=mxgraph.aws4.redshift;" parent="7ADdNedlcQ4gWojdDxL4-10" vertex="1">
          <mxGeometry x="220" y="36" width="38" height="38" as="geometry" />
        </mxCell>
        <mxCell id="7ADdNedlcQ4gWojdDxL4-48" value="" style="endArrow=classic;html=1;rounded=0;strokeColor=#4D9900;" parent="7ADdNedlcQ4gWojdDxL4-10" source="7ADdNedlcQ4gWojdDxL4-13" target="7ADdNedlcQ4gWojdDxL4-14" edge="1">
          <mxGeometry width="50" height="50" relative="1" as="geometry">
            <mxPoint x="290" y="20" as="sourcePoint" />
            <mxPoint x="340" y="-30" as="targetPoint" />
          </mxGeometry>
        </mxCell>
        <mxCell id="7ADdNedlcQ4gWojdDxL4-11" value="Public subnet" style="points=[[0,0],[0.25,0],[0.5,0],[0.75,0],[1,0],[1,0.25],[1,0.5],[1,0.75],[1,1],[0.75,1],[0.5,1],[0.25,1],[0,1],[0,0.75],[0,0.5],[0,0.25]];outlineConnect=0;gradientColor=none;html=1;whiteSpace=wrap;fontSize=12;fontStyle=0;container=1;pointerEvents=0;collapsible=0;recursiveResize=0;shape=mxgraph.aws4.group;grIcon=mxgraph.aws4.group_security_group;grStroke=0;strokeColor=#248814;fillColor=#E9F3E6;verticalAlign=top;align=left;spacingLeft=30;fontColor=#248814;dashed=0;" parent="7ADdNedlcQ4gWojdDxL4-3" vertex="1">
          <mxGeometry x="443" y="70" width="310" height="100" as="geometry" />
        </mxCell>
        <mxCell id="7ADdNedlcQ4gWojdDxL4-37" value="NAT gateway" style="sketch=0;outlineConnect=0;fontColor=#232F3E;gradientColor=none;strokeColor=#232F3E;fillColor=#ffffff;dashed=0;verticalLabelPosition=bottom;verticalAlign=top;align=center;html=1;fontSize=12;fontStyle=0;aspect=fixed;shape=mxgraph.aws4.resourceIcon;resIcon=mxgraph.aws4.nat_gateway;opacity=90;" parent="7ADdNedlcQ4gWojdDxL4-11" vertex="1">
          <mxGeometry x="270" width="40" height="40" as="geometry" />
        </mxCell>
        <mxCell id="7ADdNedlcQ4gWojdDxL4-12" value="Private subnet" style="points=[[0,0],[0.25,0],[0.5,0],[0.75,0],[1,0],[1,0.25],[1,0.5],[1,0.75],[1,1],[0.75,1],[0.5,1],[0.25,1],[0,1],[0,0.75],[0,0.5],[0,0.25]];outlineConnect=0;gradientColor=none;html=1;whiteSpace=wrap;fontSize=12;fontStyle=0;container=1;pointerEvents=0;collapsible=0;recursiveResize=0;shape=mxgraph.aws4.group;grIcon=mxgraph.aws4.group_security_group;grStroke=0;strokeColor=#147EBA;fillColor=#E6F2F8;verticalAlign=top;align=left;spacingLeft=30;fontColor=#147EBA;dashed=0;" parent="7ADdNedlcQ4gWojdDxL4-3" vertex="1">
          <mxGeometry x="443" y="190" width="310" height="210" as="geometry" />
        </mxCell>
        <mxCell id="7ADdNedlcQ4gWojdDxL4-17" value="" style="outlineConnect=0;dashed=0;verticalLabelPosition=bottom;verticalAlign=top;align=center;html=1;shape=mxgraph.aws3.ec2;fillColor=#F58534;gradientColor=none;aspect=fixed;" parent="7ADdNedlcQ4gWojdDxL4-12" vertex="1">
          <mxGeometry x="231" y="110.63" width="36.5" height="44.37" as="geometry" />
        </mxCell>
        <mxCell id="7ADdNedlcQ4gWojdDxL4-23" value="MySQL" style="text;html=1;strokeColor=none;fillColor=none;align=center;verticalAlign=middle;whiteSpace=wrap;rounded=0;opacity=70;" parent="7ADdNedlcQ4gWojdDxL4-12" vertex="1">
          <mxGeometry x="219.25" y="155" width="60" height="30" as="geometry" />
        </mxCell>
        <mxCell id="7ADdNedlcQ4gWojdDxL4-78" value="" style="endArrow=classic;html=1;rounded=0;" parent="7ADdNedlcQ4gWojdDxL4-12" target="7ADdNedlcQ4gWojdDxL4-37" edge="1">
          <mxGeometry width="50" height="50" relative="1" as="geometry">
            <mxPoint x="290" y="10" as="sourcePoint" />
            <mxPoint x="290" y="-40" as="targetPoint" />
          </mxGeometry>
        </mxCell>
        <mxCell id="7ADdNedlcQ4gWojdDxL4-82" value="" style="endArrow=classic;startArrow=classic;html=1;rounded=0;dashed=1;entryX=0.412;entryY=0.308;entryDx=0;entryDy=0;entryPerimeter=0;" parent="7ADdNedlcQ4gWojdDxL4-12" edge="1">
          <mxGeometry width="50" height="50" relative="1" as="geometry">
            <mxPoint x="175" y="19.879999999999995" as="sourcePoint" />
            <mxPoint x="175.07999999999993" y="-40.000000000000114" as="targetPoint" />
          </mxGeometry>
        </mxCell>
        <mxCell id="7ADdNedlcQ4gWojdDxL4-25" value="App Servers" style="text;html=1;strokeColor=none;fillColor=none;align=center;verticalAlign=middle;whiteSpace=wrap;rounded=0;opacity=70;" parent="7ADdNedlcQ4gWojdDxL4-12" vertex="1">
          <mxGeometry x="224" y="60" width="60" height="30" as="geometry" />
        </mxCell>
        <mxCell id="7ADdNedlcQ4gWojdDxL4-22" value="App Servers" style="text;html=1;strokeColor=none;fillColor=none;align=center;verticalAlign=middle;whiteSpace=wrap;rounded=0;opacity=70;" parent="7ADdNedlcQ4gWojdDxL4-3" vertex="1">
          <mxGeometry x="90" y="254.37" width="60" height="30" as="geometry" />
        </mxCell>
        <mxCell id="7ADdNedlcQ4gWojdDxL4-65" value="" style="endArrow=classic;html=1;rounded=0;" parent="7ADdNedlcQ4gWojdDxL4-3" source="7ADdNedlcQ4gWojdDxL4-36" target="7ADdNedlcQ4gWojdDxL4-8" edge="1">
          <mxGeometry width="50" height="50" relative="1" as="geometry">
            <mxPoint x="330" y="210" as="sourcePoint" />
            <mxPoint x="380" y="160" as="targetPoint" />
            <Array as="points">
              <mxPoint x="262" y="54" />
            </Array>
          </mxGeometry>
        </mxCell>
        <mxCell id="7ADdNedlcQ4gWojdDxL4-77" value="" style="endArrow=classic;html=1;rounded=0;" parent="7ADdNedlcQ4gWojdDxL4-3" target="7ADdNedlcQ4gWojdDxL4-36" edge="1">
          <mxGeometry width="50" height="50" relative="1" as="geometry">
            <mxPoint x="229" y="200" as="sourcePoint" />
            <mxPoint x="220" y="150" as="targetPoint" />
          </mxGeometry>
        </mxCell>
        <mxCell id="7ADdNedlcQ4gWojdDxL4-80" value="" style="endArrow=classic;startArrow=classic;html=1;rounded=0;dashed=1;" parent="7ADdNedlcQ4gWojdDxL4-3" edge="1">
          <mxGeometry width="50" height="50" relative="1" as="geometry">
            <mxPoint x="160" y="210" as="sourcePoint" />
            <mxPoint x="160" y="150" as="targetPoint" />
          </mxGeometry>
        </mxCell>
        <mxCell id="7ADdNedlcQ4gWojdDxL4-49" value="" style="endArrow=classic;html=1;exitX=1;exitY=0.5;exitDx=0;exitDy=0;exitPerimeter=0;curved=1;strokeColor=#4D9900;" parent="7ADdNedlcQ4gWojdDxL4-3" source="7ADdNedlcQ4gWojdDxL4-14" target="7ADdNedlcQ4gWojdDxL4-41" edge="1">
          <mxGeometry width="50" height="50" relative="1" as="geometry">
            <mxPoint x="330" y="210" as="sourcePoint" />
            <mxPoint x="200" y="338" as="targetPoint" />
          </mxGeometry>
        </mxCell>
        <mxCell id="7ADdNedlcQ4gWojdDxL4-41" value="Amazon Redshift" style="sketch=0;outlineConnect=0;fontColor=#232F3E;gradientColor=none;strokeColor=#ffffff;fillColor=#232F3E;dashed=0;verticalLabelPosition=middle;verticalAlign=bottom;align=center;html=1;whiteSpace=wrap;fontSize=10;fontStyle=1;spacing=3;shape=mxgraph.aws4.productIcon;prIcon=mxgraph.aws4.redshift;" parent="7ADdNedlcQ4gWojdDxL4-3" vertex="1">
          <mxGeometry x="200" y="254.37" width="40" height="70" as="geometry" />
        </mxCell>
        <mxCell id="UInEQlLYZHfzDErxerFb-8" style="edgeStyle=orthogonalEdgeStyle;rounded=0;orthogonalLoop=1;jettySize=auto;html=1;strokeColor=#4D9900;" parent="7ADdNedlcQ4gWojdDxL4-3" source="7ADdNedlcQ4gWojdDxL4-15" target="7ADdNedlcQ4gWojdDxL4-17" edge="1">
          <mxGeometry relative="1" as="geometry" />
        </mxCell>
        <mxCell id="7ADdNedlcQ4gWojdDxL4-15" value="" style="outlineConnect=0;dashed=0;verticalLabelPosition=bottom;verticalAlign=top;align=center;html=1;shape=mxgraph.aws3.ec2;fillColor=#F58534;gradientColor=none;aspect=fixed;" parent="7ADdNedlcQ4gWojdDxL4-3" vertex="1">
          <mxGeometry x="674" y="202.81" width="36.5" height="44.37" as="geometry" />
        </mxCell>
        <mxCell id="UInEQlLYZHfzDErxerFb-11" value="" style="endArrow=classic;html=1;rounded=0;" parent="7ADdNedlcQ4gWojdDxL4-3" source="7ADdNedlcQ4gWojdDxL4-37" target="7ADdNedlcQ4gWojdDxL4-8" edge="1">
          <mxGeometry width="50" height="50" relative="1" as="geometry">
            <mxPoint x="256.7499999999998" y="80" as="sourcePoint" />
            <mxPoint x="330" y="40" as="targetPoint" />
            <Array as="points">
              <mxPoint x="733" y="10" />
            </Array>
          </mxGeometry>
        </mxCell>
        <mxCell id="7ADdNedlcQ4gWojdDxL4-38" value="Amazon EMR" style="sketch=0;outlineConnect=0;fontColor=#232F3E;gradientColor=none;strokeColor=#ffffff;fillColor=#232F3E;dashed=0;verticalLabelPosition=middle;verticalAlign=bottom;align=center;html=1;whiteSpace=wrap;fontSize=10;fontStyle=1;spacing=3;shape=mxgraph.aws4.productIcon;prIcon=mxgraph.aws4.emr;" parent="7ADdNedlcQ4gWojdDxL4-3" vertex="1">
          <mxGeometry x="269" y="305" width="40" height="70" as="geometry" />
        </mxCell>
        <mxCell id="K-5VLS_lKm-DjJVDbKnK-3" value="" style="edgeStyle=orthogonalEdgeStyle;rounded=0;orthogonalLoop=1;jettySize=auto;html=1;" parent="7ADdNedlcQ4gWojdDxL4-3" target="7ADdNedlcQ4gWojdDxL4-36" edge="1">
          <mxGeometry relative="1" as="geometry">
            <mxPoint x="229" y="203" as="sourcePoint" />
          </mxGeometry>
        </mxCell>
        <mxCell id="jwfu2s2IBSjofHwO_xUc-4" value="Spark" style="text;html=1;strokeColor=none;fillColor=none;align=center;verticalAlign=middle;whiteSpace=wrap;rounded=0;" vertex="1" parent="7ADdNedlcQ4gWojdDxL4-3">
          <mxGeometry x="257" y="375" width="60" height="30" as="geometry" />
        </mxCell>
        <mxCell id="jwfu2s2IBSjofHwO_xUc-21" value="" style="outlineConnect=0;dashed=0;verticalLabelPosition=bottom;verticalAlign=top;align=center;html=1;shape=mxgraph.aws3.application_load_balancer;fillColor=#F58534;gradientColor=none;aspect=fixed;" vertex="1" parent="7ADdNedlcQ4gWojdDxL4-3">
          <mxGeometry x="392" y="59" width="34" height="32" as="geometry" />
        </mxCell>
        <mxCell id="jwfu2s2IBSjofHwO_xUc-22" value="" style="endArrow=classic;html=1;rounded=0;strokeColor=#000000;" edge="1" parent="7ADdNedlcQ4gWojdDxL4-3" source="7ADdNedlcQ4gWojdDxL4-8" target="jwfu2s2IBSjofHwO_xUc-21">
          <mxGeometry width="50" height="50" relative="1" as="geometry">
            <mxPoint x="116" y="157" as="sourcePoint" />
            <mxPoint x="166" y="107" as="targetPoint" />
            <Array as="points">
              <mxPoint x="409" y="10" />
            </Array>
          </mxGeometry>
        </mxCell>
        <mxCell id="jwfu2s2IBSjofHwO_xUc-26" value="" style="endArrow=classic;html=1;rounded=0;strokeColor=#000000;" edge="1" parent="7ADdNedlcQ4gWojdDxL4-3" target="7ADdNedlcQ4gWojdDxL4-7">
          <mxGeometry width="50" height="50" relative="1" as="geometry">
            <mxPoint x="420" y="90" as="sourcePoint" />
            <mxPoint x="166" y="107" as="targetPoint" />
          </mxGeometry>
        </mxCell>
        <mxCell id="7ADdNedlcQ4gWojdDxL4-59" value="" style="endArrow=classic;startArrow=classic;html=1;rounded=0;strokeColor=#FF66FF;" parent="1" source="7ADdNedlcQ4gWojdDxL4-38" edge="1">
          <mxGeometry width="50" height="50" relative="1" as="geometry">
            <mxPoint x="400" y="420" as="sourcePoint" />
            <mxPoint x="460" y="180" as="targetPoint" />
            <Array as="points">
              <mxPoint x="460" y="550" />
            </Array>
          </mxGeometry>
        </mxCell>
        <mxCell id="7ADdNedlcQ4gWojdDxL4-69" value="" style="outlineConnect=0;dashed=0;verticalLabelPosition=bottom;verticalAlign=top;align=center;html=1;shape=mxgraph.aws3.internet_3;fillColor=#D2D3D3;gradientColor=none;" parent="1" vertex="1">
          <mxGeometry x="40" y="-17" width="79.5" height="54" as="geometry" />
        </mxCell>
        <mxCell id="7ADdNedlcQ4gWojdDxL4-72" value="Internet" style="text;html=1;strokeColor=none;fillColor=none;align=center;verticalAlign=middle;whiteSpace=wrap;rounded=0;opacity=70;" parent="1" vertex="1">
          <mxGeometry x="49.75" y="30" width="60" height="30" as="geometry" />
        </mxCell>
        <mxCell id="7ADdNedlcQ4gWojdDxL4-83" value="" style="endArrow=classic;html=1;rounded=0;strokeColor=#FF0000;" parent="1" source="7ADdNedlcQ4gWojdDxL4-13" edge="1">
          <mxGeometry width="50" height="50" relative="1" as="geometry">
            <mxPoint x="400" y="420" as="sourcePoint" />
            <mxPoint x="240" y="160" as="targetPoint" />
            <Array as="points">
              <mxPoint x="50" y="442" />
              <mxPoint x="50" y="160" />
            </Array>
          </mxGeometry>
        </mxCell>
        <mxCell id="UInEQlLYZHfzDErxerFb-13" style="edgeStyle=orthogonalEdgeStyle;orthogonalLoop=1;jettySize=auto;html=1;rounded=0;strokeColor=#FF0000;" parent="1" source="7ADdNedlcQ4gWojdDxL4-15" edge="1">
          <mxGeometry relative="1" as="geometry">
            <Array as="points">
              <mxPoint x="910" y="435" />
              <mxPoint x="910" y="90" />
              <mxPoint x="263" y="90" />
            </Array>
            <mxPoint x="263" y="110" as="targetPoint" />
          </mxGeometry>
        </mxCell>
        <mxCell id="mRcA9u4ltrxuGY9MF4_o-5" value="" style="endArrow=classic;html=1;rounded=0;strokeColor=#00FFFF;entryX=1;entryY=0.75;entryDx=0;entryDy=0;entryPerimeter=0;" parent="1" target="7ADdNedlcQ4gWojdDxL4-43" edge="1">
          <mxGeometry width="50" height="50" relative="1" as="geometry">
            <mxPoint x="450" y="464" as="sourcePoint" />
            <mxPoint x="510" y="380" as="targetPoint" />
          </mxGeometry>
        </mxCell>
        <mxCell id="7ADdNedlcQ4gWojdDxL4-45" value="spectrum" style="text;html=1;strokeColor=none;fillColor=none;align=center;verticalAlign=middle;whiteSpace=wrap;rounded=0;opacity=70;" parent="1" vertex="1">
          <mxGeometry x="319" y="474" width="60" height="30" as="geometry" />
        </mxCell>
        <mxCell id="K-5VLS_lKm-DjJVDbKnK-4" value="" style="endArrow=classic;html=1;rounded=0;strokeColor=#FF0000;" parent="1" target="7ADdNedlcQ4gWojdDxL4-41" edge="1">
          <mxGeometry width="50" height="50" relative="1" as="geometry">
            <mxPoint x="430" y="190" as="sourcePoint" />
            <mxPoint x="238" y="326" as="targetPoint" />
            <Array as="points">
              <mxPoint x="430" y="499" />
            </Array>
          </mxGeometry>
        </mxCell>
        <mxCell id="7wpomoBz_4L5hQo5Q8Fc-1" value="Mobile client" style="sketch=0;outlineConnect=0;fontColor=#232F3E;gradientColor=none;strokeColor=#232F3E;fillColor=#ffffff;dashed=0;verticalLabelPosition=bottom;verticalAlign=top;align=center;html=1;fontSize=12;fontStyle=0;aspect=fixed;shape=mxgraph.aws4.resourceIcon;resIcon=mxgraph.aws4.mobile_client;" parent="1" vertex="1">
          <mxGeometry x="200" y="-20" width="60" height="60" as="geometry" />
        </mxCell>
        <mxCell id="7wpomoBz_4L5hQo5Q8Fc-3" value="" style="endArrow=classic;html=1;rounded=0;" parent="1" target="7ADdNedlcQ4gWojdDxL4-8" edge="1">
          <mxGeometry width="50" height="50" relative="1" as="geometry">
            <mxPoint x="160" y="10" as="sourcePoint" />
            <mxPoint x="490" y="210" as="targetPoint" />
            <Array as="points">
              <mxPoint x="160" y="220" />
            </Array>
          </mxGeometry>
        </mxCell>
        <mxCell id="7wpomoBz_4L5hQo5Q8Fc-4" value="" style="endArrow=classic;startArrow=classic;html=1;rounded=0;" parent="1" source="7ADdNedlcQ4gWojdDxL4-69" target="7wpomoBz_4L5hQo5Q8Fc-1" edge="1">
          <mxGeometry width="50" height="50" relative="1" as="geometry">
            <mxPoint x="440" y="260" as="sourcePoint" />
            <mxPoint x="490" y="210" as="targetPoint" />
          </mxGeometry>
        </mxCell>
        <mxCell id="jwfu2s2IBSjofHwO_xUc-7" value="" style="endArrow=classic;html=1;rounded=0;strokeColor=#4D9900;" edge="1" parent="1">
          <mxGeometry width="50" height="50" relative="1" as="geometry">
            <mxPoint x="-239" y="241" as="sourcePoint" />
            <mxPoint x="-157" y="241" as="targetPoint" />
          </mxGeometry>
        </mxCell>
        <mxCell id="jwfu2s2IBSjofHwO_xUc-8" value="" style="endArrow=classic;html=1;rounded=0;strokeColor=#FF0000;" edge="1" parent="1">
          <mxGeometry width="50" height="50" relative="1" as="geometry">
            <mxPoint x="-238" y="256" as="sourcePoint" />
            <mxPoint x="-156" y="256" as="targetPoint" />
          </mxGeometry>
        </mxCell>
        <mxCell id="jwfu2s2IBSjofHwO_xUc-9" value="" style="endArrow=classic;html=1;rounded=0;strokeColor=#0000FF;" edge="1" parent="1">
          <mxGeometry width="50" height="50" relative="1" as="geometry">
            <mxPoint x="-238" y="275" as="sourcePoint" />
            <mxPoint x="-156" y="275" as="targetPoint" />
          </mxGeometry>
        </mxCell>
        <mxCell id="jwfu2s2IBSjofHwO_xUc-10" value="" style="endArrow=classic;html=1;rounded=0;strokeColor=#FF66FF;" edge="1" parent="1">
          <mxGeometry width="50" height="50" relative="1" as="geometry">
            <mxPoint x="-237" y="292" as="sourcePoint" />
            <mxPoint x="-155" y="292" as="targetPoint" />
          </mxGeometry>
        </mxCell>
        <mxCell id="jwfu2s2IBSjofHwO_xUc-11" value="" style="endArrow=classic;html=1;rounded=0;strokeColor=#00FFFF;" edge="1" parent="1">
          <mxGeometry width="50" height="50" relative="1" as="geometry">
            <mxPoint x="-238" y="309" as="sourcePoint" />
            <mxPoint x="-156" y="309" as="targetPoint" />
          </mxGeometry>
        </mxCell>
        <mxCell id="jwfu2s2IBSjofHwO_xUc-14" value="Stage 2" style="text;html=1;strokeColor=none;fillColor=none;align=center;verticalAlign=middle;whiteSpace=wrap;rounded=0;" vertex="1" parent="1">
          <mxGeometry x="-149" y="249" width="60" height="20" as="geometry" />
        </mxCell>
        <mxCell id="jwfu2s2IBSjofHwO_xUc-15" value="Stage 3" style="text;html=1;strokeColor=none;fillColor=none;align=center;verticalAlign=middle;whiteSpace=wrap;rounded=0;" vertex="1" parent="1">
          <mxGeometry x="-149" y="266" width="60" height="20" as="geometry" />
        </mxCell>
        <mxCell id="jwfu2s2IBSjofHwO_xUc-16" value="Stage 4" style="text;html=1;strokeColor=none;fillColor=none;align=center;verticalAlign=middle;whiteSpace=wrap;rounded=0;" vertex="1" parent="1">
          <mxGeometry x="-149" y="286" width="60" height="20" as="geometry" />
        </mxCell>
        <mxCell id="jwfu2s2IBSjofHwO_xUc-17" value="Stage 5" style="text;html=1;strokeColor=none;fillColor=none;align=center;verticalAlign=middle;whiteSpace=wrap;rounded=0;" vertex="1" parent="1">
          <mxGeometry x="-149" y="303" width="60" height="20" as="geometry" />
        </mxCell>
        <mxCell id="jwfu2s2IBSjofHwO_xUc-18" value="Stage 1" style="text;html=1;strokeColor=none;fillColor=none;align=center;verticalAlign=middle;whiteSpace=wrap;rounded=0;" vertex="1" parent="1">
          <mxGeometry x="-149" y="233" width="60" height="20" as="geometry" />
        </mxCell>
        <mxCell id="jwfu2s2IBSjofHwO_xUc-20" value="Legends" style="swimlane;" vertex="1" parent="1">
          <mxGeometry x="-258" y="174" width="200" height="200" as="geometry" />
        </mxCell>
        <mxCell id="jwfu2s2IBSjofHwO_xUc-25" value="" style="endArrow=classic;html=1;rounded=0;strokeColor=#000000;" edge="1" parent="1">
          <mxGeometry width="50" height="50" relative="1" as="geometry">
            <mxPoint x="465" y="288" as="sourcePoint" />
            <mxPoint x="424" y="288" as="targetPoint" />
          </mxGeometry>
        </mxCell>
      </root>
    </mxGraphModel>
  </diagram>
</mxfile>
